<svg xmlns="http://www.w3.org/2000/svg" viewBox="0 0 120 120" fill="none">
  <!-- Background circle -->
  <circle cx="60" cy="60" r="56" fill="#00b894" opacity="0.1"/>
  <circle cx="60" cy="60" r="56" stroke="#00b894" stroke-width="3"/>
  
  <!-- Parent figure (larger) -->
  <circle cx="50" cy="38" r="10" fill="#00b894"/>
  <path d="M35 55 Q35 48 50 48 Q65 48 65 55 L65 72 Q65 75 62 75 L38 75 Q35 75 35 72Z" fill="#00b894"/>
  
  <!-- Child figure (smaller) -->
  <circle cx="75" cy="48" r="7" fill="#55efc4"/>
  <path d="M65 60 Q65 55 75 55 Q85 55 85 60 L85 72 Q85 74 83 74 L67 74 Q65 74 65 72Z" fill="#55efc4"/>
  
  <!-- Chart/progress indicator -->
  <rect x="32" y="82" width="56" height="24" rx="4" fill="#00b894" opacity="0.15" stroke="#00b894" stroke-width="1.5"/>
  
  <!-- Bar chart bars -->
  <rect x="40" y="96" width="6" height="6" rx="1" fill="#55efc4"/>
  <rect x="50" y="92" width="6" height="10" rx="1" fill="#00b894" opacity="0.7"/>
  <rect x="60" y="88" width="6" height="14" rx="1" fill="#00b894"/>
  <rect x="70" y="90" width="6" height="12" rx="1" fill="#00b894" opacity="0.85"/>
  
  <!-- Checkmark -->
  <path d="M78 88 L80 90 L84 85" stroke="#00b894" stroke-width="2" stroke-linecap="round" stroke-linejoin="round"/>
</svg>
